<svg xmlns="http://www.w3.org/2000/svg" viewBox="0 0 64 64"><path d="M36.914 14.545a21.849 21.849 0 0 0-6.803 1.085v-2.98a.804.804 0 1 0-1.607 0v3.574a21.937 21.937 0 1 0 8.41-1.679Zm0 42.28a20.323 20.323 0 0 1-8.41-38.83v4.672a3.543 3.543 0 1 0 1.607 2.963v-8.282a20.327 20.327 0 1 1 6.803 39.478Zm-8.41-31.195a1.94 1.94 0 1 1-1.94-1.94 1.942 1.942 0 0 1 1.94 1.94Zm8.41 4.402a6.457 6.457 0 1 0 6.456 6.458 6.464 6.464 0 0 0-6.456-6.457Zm0 11.307a4.85 4.85 0 1 1 4.848-4.85 4.855 4.855 0 0 1-4.848 4.85Zm0-5.921a1.071 1.071 0 1 0 1.07 1.072 1.071 1.071 0 0 0-1.07-1.072Zm15.762-7.178a17.752 17.752 0 0 0-15.762-9.538.804.804 0 0 0 0 1.607 16.145 16.145 0 0 1 14.338 8.677.804.804 0 1 0 1.424-.746Zm-15.762-6.38a.804.804 0 0 0 0 1.607 12.99 12.99 0 0 1 11.563 7.027.803.803 0 0 0 1.426-.74 14.59 14.59 0 0 0-12.989-7.894Zm0 3.157a.804.804 0 0 0 0 1.608 9.832 9.832 0 0 1 8.79 5.38.802.802 0 0 0 .715.438.787.787 0 0 0 .364-.089.802.802 0 0 0 .35-1.08 11.428 11.428 0 0 0-10.219-6.257Zm0 27.652a16.258 16.258 0 0 1-13.947-7.972.804.804 0 0 0-1.385.816 17.876 17.876 0 0 0 15.332 8.764.804.804 0 1 0 0-1.608Zm0-6.315a9.813 9.813 0 0 1-8.405-4.695.803.803 0 0 0-1.367.844 11.408 11.408 0 0 0 9.772 5.458.804.804 0 0 0 0-1.607Zm0 3.158a12.935 12.935 0 0 1-11.177-6.332.803.803 0 1 0-1.377.826 14.717 14.717 0 0 0 12.554 7.114.804.804 0 1 0 0-1.607ZM17.79 14.492a3.024 3.024 0 1 0 3.025 3.025V7.481a1.913 1.913 0 0 0-2.31-1.872l-7.402 1.565a1.922 1.922 0 0 0-1.519 1.872v7.852a2.984 2.984 0 0 0-1.417-.37 3.024 3.024 0 1 0 3.024 3.025v-7.305l8.016-1.696v4.31a2.984 2.984 0 0 0-1.417-.37Zm0 4.442a1.417 1.417 0 1 1 1.417-1.417 1.419 1.419 0 0 1-1.417 1.417ZM8.167 20.97a1.417 1.417 0 1 1 1.417-1.417 1.419 1.419 0 0 1-1.417 1.417Zm3.024-10.364v-1.56a.307.307 0 0 1 .244-.3l7.403-1.565a.302.302 0 0 1 .256.061.299.299 0 0 1 .113.239V8.91Z"/></svg>