<svg xmlns="http://www.w3.org/2000/svg" data-name="Layer 1" viewBox="0 0 68 68"><path d="M12.4,48.31a4.9,4.9,0,0,1-3.49-1.44l-5.09-5.1a1,1,0,1,1,1.42-1.41l5.09,5.09a3,3,0,0,0,4.15,0L17.91,42a1,1,0,0,1,1.42,1.41L15.9,46.87A4.94,4.94,0,0,1,12.4,48.31Z"/><path d="M12.64,62.63a1,1,0,0,1-.71-.29l-4.5-4.5a1,1,0,0,1,0-1.42L18,45.88a1.44,1.44,0,0,0,0-2.05A3.45,3.45,0,0,1,18,39h0L50.29,6.58a1,1,0,0,1,1.42,0l7.95,8a1,1,0,0,1,0,1.42L13.35,62.34A1,1,0,0,1,12.64,62.63Zm-3.09-5.5,3.09,3.09,44.9-45L51,8.7,19.38,40.37a1.44,1.44,0,0,0,0,2.05,3.45,3.45,0,0,1,0,4.87Z"/><path d="M41.86 33.37a1 1 0 0 1-.7-.3l-8-8a1 1 0 0 1 0-1.41l5.88-5.89a1 1 0 0 1 1.41 0l8 8a1 1 0 0 1 0 1.41l-5.88 5.88A1 1 0 0 1 41.86 33.37zm-6.54-9L41.86 31l4.47-4.47-6.54-6.55zM60.61 17.52A1.94 1.94 0 0 1 59.24 17L49.3 7a1.94 1.94 0 0 1 0-2.75l1.91-1.93h0a2 2 0 0 1 2.75 0l9.94 10a1.94 1.94 0 0 1 0 2.74L62 17A2 2 0 0 1 60.61 17.52zm-8-13.75L50.72 5.66l9.93 9.87 1.84-1.93zM10.8 66.25a2.61 2.61 0 0 1-1.86-.77L4.3 60.83a2.63 2.63 0 0 1 0-3.71h0l.76-.77a2.61 2.61 0 0 1 1.86-.77h0a2.57 2.57 0 0 1 1.85.77L13.42 61a2.63 2.63 0 0 1 0 3.71l-.77.77A2.57 2.57 0 0 1 10.8 66.25zM5.71 58.53a.64.64 0 0 0 0 .89l4.65 4.65a.65.65 0 0 0 .88 0L12 63.3a.62.62 0 0 0 0-.89L7.36 57.76a.65.65 0 0 0-.44-.18h0a.65.65 0 0 0-.44.18zM25.16 42.92a2.51 2.51 0 0 1-1.78-4.28h0a2.57 2.57 0 0 1 3.55 0 2.51 2.51 0 0 1-1.77 4.28zm0-3a.5.5 0 0 0-.35.15h0a.51.51 0 0 0 .36.87.5.5 0 0 0 .35-.15.51.51 0 0 0-.36-.87zm-1.06-.56h0z"/><path d="M24.09 40.34a1 1 0 0 1-.71-.29l-6-6a1 1 0 0 1 0-1.41 1 1 0 0 1 1.42 0l6 6a1 1 0 0 1 0 1.41A1 1 0 0 1 24.09 40.34zM29.65 38.42a2.51 2.51 0 0 1-1.77-4.28h0a2.55 2.55 0 0 1 3.54 0 2.51 2.51 0 0 1-1.77 4.28zm0-3a.51.51 0 0 0-.36.15h0a.53.53 0 0 0 0 .72.51.51 0 0 0 .36.15.47.47 0 0 0 .35-.15.51.51 0 0 0 0-.72A.47.47 0 0 0 29.65 35.4zm-1.07-.56h0z"/><path d="M28.58 35.84a1 1 0 0 1-.7-.29l-6-6a1 1 0 0 1 0-1.41 1 1 0 0 1 1.41 0l6 6a1 1 0 0 1 0 1.41A1 1 0 0 1 28.58 35.84zM34.14 33.92a2.51 2.51 0 0 1-1.77-4.28h0a2.46 2.46 0 0 1 1.77-.74h0a2.46 2.46 0 0 1 1.77.74 2.51 2.51 0 0 1-1.77 4.28zm-.35-2.87a.51.51 0 0 0 0 .72.49.49 0 0 0 .35.15.51.51 0 0 0 0-1h0A.47.47 0 0 0 33.79 31.05z"/><path d="M33.08 31.34a1 1 0 0 1-.71-.29l-6-6a1 1 0 1 1 1.41-1.41l6 6a1 1 0 0 1-.71 1.7zM47.2 20.84a2.51 2.51 0 0 1-1.77-4.28 2.56 2.56 0 0 1 3.54 0 2.5 2.5 0 0 1 0 3.54 2.46 2.46 0 0 1-1.77.74zm0-3a.53.53 0 0 0-.36.14h0a.51.51 0 0 0 0 .71.51.51 0 0 0 .72 0 .51.51 0 0 0 0-.71A.51.51 0 0 0 47.2 17.83zm-1.06-.56h0z"/><path d="M46.14,18.27a1,1,0,0,1-.71-.29l-6-6a1,1,0,0,1,0-1.42,1,1,0,0,1,1.41,0l6,6a1,1,0,0,1-.7,1.71Z"/><path d="M16.6,35.86a1,1,0,0,1-.7-.29,1,1,0,0,1,0-1.41L41,9.06a1,1,0,0,1,1.42,1.42L17.31,35.57A1,1,0,0,1,16.6,35.86Z"/></svg>