<svg xmlns="http://www.w3.org/2000/svg" enable-background="new 0 0 64 64" version="1.0" viewBox="0 0 64 64"><path d="M28.85,25.28h-10.7c-0.16,0-0.3-0.13-0.3-0.3v-5.5c0-0.16,0.13-0.3,0.3-0.3h10.7c0.16,0,0.3,0.13,0.3,0.3v5.5
				C29.15,25.14,29.01,25.28,28.85,25.28z M18.45,24.68h10.11v-4.91H18.45V24.68z"/><path d="M28.75 19.72h-10.6c-.44 0-.74-.3-.74-.74s.3-.74.74-.74h10.6c.42 0 .72.28.74.69.04.13.02.28-.06.41C29.29 19.56 29.01 19.72 28.75 19.72zM18.15 18.72c-.17 0-.26.09-.26.26s.09.26.26.26h10.6c.14 0 .27-.13.28-.18-.02-.03-.02-.04-.02-.08 0-.17-.09-.26-.26-.26H18.15zM28.75 26.22h-10.6c-.44 0-.74-.3-.74-.74s.3-.74.74-.74h10.6c.42 0 .72.29.74.7.04.17.01.34-.09.48C29.27 26.1 29.02 26.22 28.75 26.22zM18.15 25.22c-.17 0-.26.09-.26.26s.09.26.26.26h10.6c.13 0 .23-.05.26-.1.01-.02.02-.04.01-.08-.01-.02-.01-.05-.01-.08 0-.17-.09-.26-.26-.26H18.15zM28.05 24.52h-1c-.13 0-.24-.11-.24-.24v-3.8c0-.44.3-.74.74-.74s.74.3.74.74v3.8C28.29 24.41 28.18 24.52 28.05 24.52zM27.29 24.04h.52v-3.56c0-.17-.09-.26-.26-.26s-.26.09-.26.26V24.04zM41.65 25.28h-10.7c-.16 0-.3-.13-.3-.3v-5.5c0-.16.13-.3.3-.3h10.7c.16 0 .3.13.3.3v5.5C41.95 25.14 41.81 25.28 41.65 25.28zM31.25 24.68h10.11v-4.91H31.25V24.68z"/><path d="M41.65 19.72h-10.6c-.44 0-.74-.3-.74-.74s.3-.74.74-.74h10.6c.44 0 .74.3.74.74C42.39 19.31 41.98 19.72 41.65 19.72zM31.05 18.72c-.17 0-.26.09-.26.26s.09.26.26.26h10.6c.08-.01.25-.18.26-.26 0-.16-.09-.26-.26-.26H31.05zM41.65 26.22h-10.6c-.44 0-.74-.3-.74-.74s.3-.74.74-.74h10.6c.44 0 .74.3.74.74C42.39 25.94 41.96 26.22 41.65 26.22zM31.05 25.22c-.17 0-.26.09-.26.26s.09.26.26.26h10.6c.07 0 .26-.1.26-.26 0-.17-.09-.26-.26-.26H31.05zM32.65 24.52h-1c-.13 0-.24-.11-.24-.24v-3.8c0-.44.3-.74.74-.74s.74.3.74.74v3.8C32.89 24.41 32.78 24.52 32.65 24.52zM31.89 24.04h.52v-3.56c0-.17-.09-.26-.26-.26s-.26.09-.26.26V24.04zM49.25 45.75c-.21 0-.38-.17-.38-.38 0-1.65.03-3.3.05-4.96.03-1.65.05-3.3.05-4.94 0-.21.17-.38.38-.38s.38.17.38.38c0 1.65-.03 3.3-.05 4.96-.03 1.65-.05 3.3-.05 4.94C49.63 45.59 49.46 45.75 49.25 45.75z"/><path d="M52.25,51.75c-0.14,0-0.27-0.08-0.34-0.21l-3-6.2c-0.09-0.19-0.01-0.41,0.17-0.5c0.19-0.09,0.41-0.01,0.5,0.17l3,6.2
					c0.09,0.19,0.01,0.41-0.17,0.5C52.36,51.74,52.3,51.75,52.25,51.75z"/><path d="M46.85 51.75c-.05 0-.09-.01-.14-.03-.19-.08-.29-.3-.21-.49l2.4-6c.08-.19.3-.28.49-.21.19.08.29.3.21.49l-2.4 6C47.14 51.67 47 51.75 46.85 51.75zM56 33.26H43.2c-.21 0-.38-.17-.38-.38v-5c0-.21.17-.38.38-.38H56c.21 0 .38.17.38.38v5C56.38 33.09 56.21 33.26 56 33.26zM43.58 32.51h12.05v-4.25H43.58V32.51z"/><path d="M56.1 27.93H42.8c-.34 0-.65-.31-.65-.65v-.2c0-.34.31-.65.65-.65h13.3c.34 0 .65.31.65.65v.2C56.75 27.67 56.49 27.93 56.1 27.93zM42.8 26.93c-.06 0-.15.09-.15.15v.2c0 .06.09.15.15.15h13.3c.1 0 .15-.02.15-.15v-.2c0-.06-.09-.15-.15-.15H42.8zM56.2 34.3H42.9c-.34 0-.65-.31-.65-.65v-.2c0-.34.31-.65.65-.65h13.3c.34 0 .65.31.65.65v.2C56.85 33.99 56.54 34.3 56.2 34.3zM42.9 33.3c-.06 0-.15.09-.15.15v.2c0 .06.09.15.15.15h13.3c.06 0 .15-.09.15-.15v-.2c0-.06-.09-.15-.15-.15H42.9zM51.44 30.96h-.91c-.09 0-.16-.07-.16-.16v-2.28c0-.09.07-.16.16-.16h.91c.09 0 .16.07.16.16v2.28C51.6 30.89 51.53 30.96 51.44 30.96zM50.69 30.65h.59v-1.96h-.59V30.65z"/><g><path d="M30.85,50.26c-6.05,0-10.97-4.92-10.97-10.97c0-6.05,4.92-10.97,10.97-10.97c6.05,0,10.97,4.92,10.97,10.97
				C41.82,45.34,36.9,50.26,30.85,50.26z M30.85,29.06c-5.64,0-10.23,4.59-10.23,10.23c0,5.64,4.59,10.23,10.23,10.23
				c5.64,0,10.23-4.59,10.23-10.23C41.08,33.65,36.49,29.06,30.85,29.06z"/><path d="M30.85,51.05c-6.49,0-11.77-5.28-11.77-11.77c0-6.49,5.28-11.77,11.77-11.77s11.77,5.28,11.77,11.77
				C42.62,45.78,37.34,51.05,30.85,51.05z M30.85,28.06c-6.19,0-11.23,5.04-11.23,11.23s5.04,11.23,11.23,11.23
				s11.23-5.04,11.23-11.23S37.04,28.06,30.85,28.06z"/><path d="M31.04 49.11c-1.5 0-3.45-.31-4.86-1.64-.09-.08-.16-.16-.21-.21-.08-.08-.09-.21-.03-.31l10.1-15c.07-.1.2-.14.31-.09.05.02.12.06.21.1 0 0 0 0 0 0 1.58.83 2.39 2.19 2.78 2.84 1.59 2.67 1.39 5.43 1.36 5.73-.14 1.55-.67 3.06-1.55 4.38-1.99 2.98-5.07 3.8-5.97 3.98C32.88 48.97 32.06 49.11 31.04 49.11zM26.47 47.06c.02.02.03.03.05.05 2.2 2.07 5.86 1.46 6.57 1.31.85-.17 3.78-.95 5.66-3.77.83-1.25 1.34-2.68 1.47-4.15.01-.12.24-2.85-1.3-5.44-.39-.66-1.13-1.9-2.58-2.66l0 0c0 0 0 0 0 0L26.47 47.06zM23.45 52.26c-.06 0-.12-.01-.17-.04-.18-.1-.26-.32-.16-.51l1.4-2.7c.09-.18.32-.25.51-.16.18.1.26.32.16.51l-1.4 2.7C23.72 52.19 23.59 52.26 23.45 52.26zM39.05 52.26c-.14 0-.27-.08-.34-.21l-1.5-3.1c-.09-.19-.01-.41.17-.5.19-.09.41-.01.5.17l1.5 3.1c.09.19.01.41-.17.5C39.16 52.25 39.1 52.26 39.05 52.26z"/></g><g><path d="M15.05,14.16c-3.21,0-7.97-0.55-7.97-2.08c0-1.58,4.89-1.9,6.27-1.96c0.21-0.54,0.87-0.91,1.71-0.91
			c0.8,0,1.5,0.44,1.71,1.01c2.38,0.1,6.08,0.57,6.26,1.81C23.03,14.1,15.87,14.16,15.05,14.16z M15.05,9.96
			c-0.6,0-1.02,0.28-1.02,0.52c0,0.2-0.16,0.37-0.36,0.38c-3.95,0.11-5.78,0.92-5.84,1.23c0.08,0.45,2.7,1.32,7.22,1.32
			c4.74,0,7.23-0.86,7.23-1.33c-0.12-0.24-1.97-1.01-5.84-1.13c-0.2-0.01-0.36-0.17-0.36-0.38C16.08,10.33,15.68,9.96,15.05,9.96z
			 M16.83,10.59L16.83,10.59L16.83,10.59z"/></g><g><path d="M14.95,39.95c-0.21,0-0.38-0.17-0.38-0.38v-24c0-0.21,0.17-0.38,0.38-0.38s0.38,0.17,0.38,0.38v24
				C15.33,39.79,15.16,39.95,14.95,39.95z"/><path d="M9.15,53.05c-0.05,0-0.1-0.01-0.15-0.03c-0.19-0.08-0.28-0.3-0.2-0.49c0.95-2.21,1.93-4.39,2.91-6.58
				c0.97-2.17,1.94-4.33,2.89-6.52c0.08-0.19,0.31-0.28,0.49-0.2c0.19,0.08,0.28,0.3,0.2,0.49c-0.95,2.19-1.92,4.36-2.89,6.53
				c-0.98,2.18-1.96,4.36-2.91,6.57C9.43,52.97,9.29,53.05,9.15,53.05z"/><path d="M16.95,55.75c-0.19,0-0.35-0.14-0.37-0.33l-2-15.8c-0.03-0.21,0.12-0.39,0.33-0.42c0.2-0.02,0.39,0.12,0.42,0.33l2,15.8
				c0.03,0.21-0.12,0.39-0.33,0.42C16.98,55.75,16.97,55.75,16.95,55.75z"/><path d="M19.05,52.15c-0.16,0-0.3-0.1-0.35-0.25l-4-11.7c-0.07-0.2,0.04-0.41,0.23-0.48c0.2-0.07,0.41,0.04,0.48,0.23l4,11.7
				c0.07,0.2-0.04,0.41-0.23,0.48C19.13,52.15,19.09,52.15,19.05,52.15z"/></g><g><path d="M16.35,12.06h-2.8c-0.21,0-0.38-0.17-0.38-0.38s0.17-0.38,0.38-0.38h2.8c0.21,0,0.38,0.17,0.38,0.38
			S16.56,12.06,16.35,12.06z"/></g></svg>