<svg width="11" height="20" viewBox="0 0 11 20" fill="none" xmlns="http://www.w3.org/2000/svg">
<mask id="path-1-inside-1_1_6" fill="white">
<path fill-rule="evenodd" clip-rule="evenodd" d="M0.366 19.708C0.771 20.098 1.426 20.098 1.83 19.708L10.393 11.444C10.5847 11.2618 10.7373 11.0426 10.8416 10.7996C10.9459 10.5566 10.9997 10.2949 10.9997 10.0305C10.9997 9.76607 10.9459 9.5044 10.8416 9.2614C10.7373 9.01841 10.5847 8.79916 10.393 8.617L1.768 0.292C1.57225 0.105947 1.31303 0.00137322 1.04298 -0.000484093C0.772923 -0.00234141 0.512287 0.098657 0.314 0.282C0.215772 0.37254 0.137176 0.482281 0.0830804 0.604429C0.0289847 0.726576 0.000540519 0.858528 -0.000490672 0.992114C-0.00152186 1.1257 0.0248819 1.25808 0.0770854 1.38104C0.129289 1.50401 0.206181 1.61495 0.303 1.707L8.197 9.324C8.29292 9.41509 8.3693 9.52474 8.42149 9.64629C8.47369 9.76783 8.5006 9.89872 8.5006 10.031C8.5006 10.1633 8.47369 10.2942 8.42149 10.4157C8.3693 10.5373 8.29292 10.6469 8.197 10.738L0.366 18.295C0.27011 18.386 0.193748 18.4956 0.141566 18.617C0.0893833 18.7385 0.0624725 18.8693 0.0624725 19.0015C0.0624725 19.1337 0.0893833 19.2645 0.141566 19.386C0.193748 19.5074 0.27011 19.617 0.366 19.708"/>
</mask>
<path fill-rule="evenodd" clip-rule="evenodd" d="M0.366 19.708C0.771 20.098 1.426 20.098 1.83 19.708L10.393 11.444C10.5847 11.2618 10.7373 11.0426 10.8416 10.7996C10.9459 10.5566 10.9997 10.2949 10.9997 10.0305C10.9997 9.76607 10.9459 9.5044 10.8416 9.2614C10.7373 9.01841 10.5847 8.79916 10.393 8.617L1.768 0.292C1.57225 0.105947 1.31303 0.00137322 1.04298 -0.000484093C0.772923 -0.00234141 0.512287 0.098657 0.314 0.282C0.215772 0.37254 0.137176 0.482281 0.0830804 0.604429C0.0289847 0.726576 0.000540519 0.858528 -0.000490672 0.992114C-0.00152186 1.1257 0.0248819 1.25808 0.0770854 1.38104C0.129289 1.50401 0.206181 1.61495 0.303 1.707L8.197 9.324C8.29292 9.41509 8.3693 9.52474 8.42149 9.64629C8.47369 9.76783 8.5006 9.89872 8.5006 10.031C8.5006 10.1633 8.47369 10.2942 8.42149 10.4157C8.3693 10.5373 8.29292 10.6469 8.197 10.738L0.366 18.295C0.27011 18.386 0.193748 18.4956 0.141566 18.617C0.0893833 18.7385 0.0624725 18.8693 0.0624725 19.0015C0.0624725 19.1337 0.0893833 19.2645 0.141566 19.386C0.193748 19.5074 0.27011 19.617 0.366 19.708" fill="white"/>
<path d="M1.83 19.708L1.13557 18.9884L1.13547 18.9885L1.83 19.708ZM10.393 11.444L9.7041 10.7191L9.69857 10.7244L10.393 11.444ZM10.9997 10.0305H9.99968H10.9997ZM10.393 8.617L9.6985 9.33653L9.70412 9.34187L10.393 8.617ZM1.768 0.292L2.4625 -0.427531L2.45693 -0.432827L1.768 0.292ZM0.314 0.282L0.991747 1.0173L0.992896 1.01623L0.314 0.282ZM0.303 1.707L0.997387 0.98736L0.992017 0.982254L0.303 1.707ZM8.197 9.324L7.50261 10.0436L7.50839 10.0491L8.197 9.324ZM8.5006 10.031H9.5006H8.5006ZM8.197 10.738L7.50836 10.0128L7.50259 10.0184L8.197 10.738ZM0.366 18.295L1.05439 19.0204L1.06041 19.0146L0.366 18.295ZM0.0624725 19.0015H-0.937527H0.0624725ZM-0.327642 20.4283C0.464128 21.1908 1.73258 21.192 2.52453 20.4275L1.13547 18.9885C1.13091 18.9929 1.11987 19.0005 1.09837 19.0005C1.07686 19.0005 1.06505 18.9929 1.05964 18.9877L-0.327642 20.4283ZM2.52443 20.4276L11.0874 12.1636L9.69857 10.7244L1.13557 18.9884L2.52443 20.4276ZM11.0819 12.1689C11.3719 11.8933 11.6028 11.5616 11.7605 11.194L9.92267 10.4052C9.87186 10.5236 9.7975 10.6304 9.70412 10.7191L11.0819 12.1689ZM11.7605 11.194C11.9183 10.8264 11.9997 10.4305 11.9997 10.0305H9.99968C9.99968 10.1593 9.97348 10.2868 9.92267 10.4052L11.7605 11.194ZM11.9997 10.0305C11.9997 9.63046 11.9183 9.2346 11.7605 8.86699L9.92267 9.65581C9.97347 9.77419 9.99968 9.90167 9.99968 10.0305L11.9997 10.0305ZM11.7605 8.86699C11.6028 8.49938 11.3719 8.16771 11.0819 7.89213L9.70412 9.34187C9.7975 9.43062 9.87186 9.53743 9.92267 9.65581L11.7605 8.86699ZM11.0875 7.89749L2.46248 -0.42751L1.07352 1.01151L9.69852 9.33651L11.0875 7.89749ZM2.45693 -0.432827C2.07704 -0.793906 1.57396 -0.996856 1.04985 -1.00046L1.0361 0.999492C1.0521 0.999602 1.06747 1.0058 1.07907 1.01683L2.45693 -0.432827ZM1.04985 -1.00046C0.525752 -1.00406 0.0199265 -0.808054 -0.364896 -0.452235L0.992896 1.01623C1.00465 1.00537 1.02009 0.999382 1.0361 0.999492L1.04985 -1.00046ZM-0.363747 -0.453296C-0.562618 -0.269989 -0.721742 -0.0478078 -0.831264 0.199491L0.997425 1.00937C0.996094 1.01237 0.994161 1.01507 0.991746 1.0173L-0.363747 -0.453296ZM-0.831264 0.199491C-0.940785 0.446789 -0.998373 0.713938 -1.00046 0.984395L0.99948 0.999833C0.999454 1.00312 0.998755 1.00636 0.997425 1.00937L-0.831264 0.199491ZM-1.00046 0.984395C-1.00255 1.25485 -0.949092 1.52286 -0.843401 1.77182L0.997572 0.99027C0.998856 0.993293 0.999505 0.996549 0.99948 0.999833L-1.00046 0.984395ZM-0.843401 1.77182C-0.73771 2.02078 -0.582036 2.24539 -0.386017 2.43174L0.992017 0.982254C0.994398 0.984518 0.996288 0.987246 0.997572 0.99027L-0.843401 1.77182ZM-0.391369 2.42662L7.50263 10.0436L8.89137 8.60438L0.997368 0.98738L-0.391369 2.42662ZM7.50839 10.0491C7.50593 10.0468 7.50397 10.044 7.50263 10.0409L9.34035 9.25171C9.23463 9.0055 9.07991 8.78338 8.88561 8.59887L7.50839 10.0491ZM7.50263 10.0409C7.50129 10.0377 7.5006 10.0344 7.5006 10.031H9.5006C9.5006 9.76305 9.44608 9.49791 9.34035 9.25171L7.50263 10.0409ZM7.5006 10.031C7.5006 10.0276 7.50129 10.0243 7.50263 10.0211L9.34035 10.8103C9.44608 10.5641 9.5006 10.2989 9.5006 10.031L7.5006 10.031ZM7.50263 10.0211C7.50397 10.018 7.50593 10.0152 7.50839 10.0129L8.88561 11.4631C9.07991 11.2786 9.23463 11.0565 9.34035 10.8103L7.50263 10.0211ZM7.50259 10.0184L-0.328406 17.5754L1.06041 19.0146L8.89141 11.4576L7.50259 10.0184ZM-0.322371 17.5696C-0.51671 17.7541 -0.671472 17.9761 -0.77723 18.2223L1.06036 19.0118C1.05897 19.015 1.05693 19.0179 1.05437 19.0204L-0.322371 17.5696ZM-0.77723 18.2223C-0.882987 18.4685 -0.937527 18.7336 -0.937527 19.0015H1.06247C1.06247 19.005 1.06175 19.0085 1.06036 19.0118L-0.77723 18.2223ZM-0.937527 19.0015C-0.937527 19.2694 -0.882988 19.5345 -0.77723 19.7807L1.06036 18.9912C1.06175 18.9945 1.06247 18.998 1.06247 19.0015H-0.937527ZM-0.77723 19.7807C-0.671472 20.0269 -0.51671 20.2489 -0.322371 20.4334L1.05437 18.9826C1.05693 18.9851 1.05897 18.988 1.06036 18.9912L-0.77723 19.7807Z" fill="white" mask="url(#path-1-inside-1_1_6)"/>
</svg>
