<svg xmlns="http://www.w3.org/2000/svg" enable-background="new 0 0 1024 1024" viewBox="0 0 1024 1024"><path d="M363.8,920.67c-25.99,0-53.5-7.21-80.04-21.26c-33-17.47-62.13-44.21-88.7-70.51c-0.02-0.02-0.05-0.05-0.07-0.07
			c-26.29-26.57-53.03-55.71-70.51-88.71c-20.15-38.07-26.24-78.14-17.15-112.85c7.28-27.78,24.19-53.12,50.25-75.31
			c20.26-17.24,46.68-33.05,78.53-46.99c10.46-4.58,21.25-9,31.68-13.28c42.46-17.42,86.36-35.42,117.53-67.77
			c4.99-5.17,9.68-10.7,14.66-16.56c13.96-16.44,28.39-33.44,49.56-41.95c24.99-10.04,56.32-5.74,83.82,11.51
			c16.26,10.2,29.79,22.63,40.89,33.44c1.92,1.87,3,4.42,3.02,7.1c0.02,2.67-1.04,5.24-2.93,7.14l-75.88,75.87
			c5.02,3.07,9.67,6.75,13.93,11c4.25,4.25,7.93,8.91,11,13.93l75.88-75.88c1.88-1.88,4.42-2.93,7.07-2.93c0.02,0,0.04,0,0.06,0
			c2.67,0.02,5.23,1.1,7.1,3.02c10.81,11.09,23.25,24.63,33.45,40.89c17.25,27.5,21.55,58.84,11.51,83.82
			c-8.51,21.18-25.51,35.61-41.95,49.57c-5.85,4.97-11.38,9.66-16.55,14.65c-32.34,31.17-50.35,75.08-67.77,117.53
			c-4.28,10.43-8.7,21.22-13.28,31.68c-13.94,31.85-29.74,58.27-46.99,78.53c-22.19,26.07-47.52,42.97-75.31,50.25l-2.54-9.67
			l2.54,9.67C386.1,919.31,375.09,920.67,363.8,920.67z M209.16,814.73c23.73,23.48,51.74,49.95,83.96,67.01
			c33.62,17.8,68.58,23.29,98.42,15.47c43.21-11.32,79.89-50.84,109.04-117.45c4.48-10.25,8.86-20.92,13.1-31.25
			c18.2-44.37,37.02-90.25,72.39-124.34c5.63-5.42,11.66-10.55,17.49-15.5c15.26-12.96,29.67-25.19,36.34-41.78
			c7.66-19.06,3.96-43.64-9.9-65.74c-7.13-11.36-15.66-21.46-23.83-30.23l-78.58,78.58c-2.42,2.42-5.91,3.43-9.25,2.69
			c-3.34-0.74-6.07-3.14-7.23-6.36c-2.75-7.61-7.08-14.4-12.87-20.19c-5.79-5.79-12.59-10.12-20.19-12.87
			c-3.22-1.16-5.62-3.89-6.36-7.23c-0.74-3.34,0.27-6.83,2.69-9.25l78.58-78.58c-8.78-8.17-18.86-16.7-30.23-23.83
			c-22.1-13.86-46.67-17.56-65.74-9.9c-16.59,6.67-28.82,21.08-41.78,36.34c-4.95,5.83-10.08,11.87-15.5,17.5
			c-34.09,35.37-79.97,54.19-124.34,72.39c-10.33,4.24-21,8.61-31.25,13.1c-66.61,29.15-106.13,65.83-117.45,109.04
			c-7.82,29.85-2.33,64.8,15.47,98.42C159.21,762.99,185.68,791,209.16,814.73z"/><rect width="20" height="122.12" x="277.88" y="674.94" transform="rotate(-45.001 287.871 736.008)"/><polygon points="735.9 240.89 831.37 107.32 863.3 160.81 914.8 190.75 783.22 288.21"/><path d="M783.23 298.21c-2.58 0-5.14-.99-7.07-2.93l-47.32-47.32c-3.46-3.46-3.91-8.91-1.06-12.89l95.47-133.57c1.96-2.74 5.17-4.31 8.55-4.18 3.37.14 6.45 1.97 8.17 4.87l30.61 51.27 49.26 28.64c2.91 1.69 4.77 4.73 4.96 8.09s-1.33 6.59-4.03 8.59l-131.57 97.47C787.4 297.57 785.31 298.21 783.23 298.21zM748.97 239.82l35.23 35.23 112.44-83.29-38.36-22.3c-1.47-.85-2.69-2.06-3.56-3.52l-24.1-40.37L748.97 239.82zM505.31 610.85c-21.52 21.52-54.36 24.86-79.4 10.01-4.59-2.72-8.93-6.06-12.89-10.02-3.95-3.95-7.29-8.29-10.02-12.89-14.85-25.03-11.51-57.87 10.02-79.39 18.5-18.5 45.34-23.57 68.42-15.21 3.78 1.37 7.46 3.09 10.98 5.19 4.59 2.72 8.93 6.06 12.89 10.02 3.95 3.95 7.3 8.29 10.02 12.89 2.09 3.52 3.82 7.2 5.19 10.98C528.88 565.5 523.81 592.35 505.31 610.85z"/><path d="M459.15,639.99c-13.16,0-26.4-3.45-38.33-10.53c-5.39-3.19-10.39-7.08-14.86-11.55c-4.46-4.46-8.35-9.46-11.55-14.86
			c-17.54-29.57-12.79-67.22,11.55-91.56c20.57-20.57,51.53-27.46,78.89-17.54c4.42,1.6,8.69,3.62,12.69,5.99
			c5.38,3.19,10.38,7.07,14.85,11.54c4.47,4.47,8.36,9.47,11.55,14.86c2.37,3.99,4.39,8.26,5.99,12.68
			c9.91,27.36,3.03,58.33-17.54,78.89v0C497.86,632.44,478.6,639.99,459.15,639.99z M459.29,509.48c-14.45,0-28.67,5.65-39.19,16.16
			c-17.87,17.87-21.36,45.51-8.49,67.22c2.35,3.96,5.21,7.64,8.49,10.92c3.29,3.29,6.96,6.14,10.91,8.48
			c21.71,12.88,49.36,9.39,67.23-8.48c15.1-15.1,20.16-37.85,12.87-57.94c-1.17-3.24-2.64-6.36-4.38-9.27
			c-2.35-3.97-5.21-7.64-8.49-10.93c-3.29-3.29-6.96-6.14-10.91-8.48c-2.93-1.74-6.05-3.22-9.29-4.39
			C471.94,510.55,465.59,509.48,459.29,509.48z"/><path d="M520.52,552.43c-0.72,0-1.45-0.08-2.18-0.24c-3.34-0.74-6.07-3.15-7.23-6.36c-2.75-7.61-7.08-14.4-12.87-20.19
			c-5.79-5.79-12.59-10.12-20.19-12.87c-3.22-1.16-5.62-3.89-6.36-7.23c-0.74-3.34,0.27-6.83,2.69-9.25l258.46-258.46
			c3.91-3.9,10.24-3.9,14.14,0l39.07,39.07c3.91,3.91,3.91,10.24,0,14.14L527.59,549.5C525.69,551.4,523.14,552.43,520.52,552.43z
			 M498.46,500.49c5.02,3.07,9.67,6.75,13.93,11c4.25,4.25,7.93,8.91,11,13.93l241.45-241.45l-24.93-24.93L498.46,500.49z"/></svg>