<svg xmlns="http://www.w3.org/2000/svg" viewBox="0 0 32 32"><path fill="none" stroke="#000" stroke-linecap="round" stroke-linejoin="round" stroke-miterlimit="10" stroke-width="2" d="M24.945 15c-.499 4.494-4.32 8-8.945 8s-8.446-3.506-8.945-8"/><path fill="none" stroke="#000" stroke-linecap="round" stroke-linejoin="round" stroke-miterlimit="10" stroke-width="2" d="M16 19h0a5 5 0 0 1-5-5V8a5 5 0 0 1 5-5h0a5 5 0 0 1 5 5v6a5 5 0 0 1-5 5zM16 23v6M12 29h8M24.464 5.999A3.98 3.98 0 0 1 25 8c0 .729-.195 1.413-.535 2.001"/><path fill="none" stroke="#000" stroke-linecap="round" stroke-linejoin="round" stroke-miterlimit="10" stroke-width="2.032" d="M28 4c.692 1.195 1 2.52 1 4 0 1.428-.353 2.834-1 4"/><path fill="none" stroke="#000" stroke-linecap="round" stroke-linejoin="round" stroke-miterlimit="10" stroke-width="2" d="M7.536 5.999A3.98 3.98 0 0 0 7 8c0 .729.195 1.413.535 2.001"/><path fill="none" stroke="#000" stroke-linecap="round" stroke-linejoin="round" stroke-miterlimit="10" stroke-width="2.032" d="M4 4c-.692 1.195-1 2.52-1 4 0 1.428.353 2.834 1 4"/></svg>