<svg xmlns="http://www.w3.org/2000/svg" width="24" height="24" fill="none"><path fill="#000" fill-rule="evenodd" d="M1.5 9A1.5 1.5 0 0 1 3 7.5h18A1.5 1.5 0 0 1 22.5 9v11a1.5 1.5 0 0 1-1.5 1.5H3A1.5 1.5 0 0 1 1.5 20V9ZM3 8.5a.5.5 0 0 0-.5.5v11a.5.5 0 0 0 .5.5h18a.5.5 0 0 0 .5-.5V9a.5.5 0 0 0-.5-.5H3Z" clip-rule="evenodd"/><path fill="#000" fill-rule="evenodd" d="M9.77 10.556a.5.5 0 0 1 .517.034l5 3.5a.5.5 0 0 1 0 .82l-5 3.5A.5.5 0 0 1 9.5 18v-7a.5.5 0 0 1 .27-.444zm.73 1.404v5.08l3.628-2.54-3.628-2.54zM20 6H4V5h16v1zm-2-2.5H6v-1h12v1z" clip-rule="evenodd"/></svg>